<svg width="1238" height="1213" viewBox="0 0 1238 1213" fill="none" xmlns="http://www.w3.org/2000/svg">
<path d="M1357.67 747.322C1513.68 704.504 1460.96 557.876 1415.1 489.914C1272.74 281.533 1195.37 446.334 961.997 231.959C728.622 17.5846 754.988 124.235 271.014 440.312C-212.96 756.389 243.505 897.277 326.079 831.383C408.653 765.489 496.631 836.84 580.128 1005.89C663.624 1174.93 1050.49 1048.11 1040.01 893.544C1029.53 738.98 1162.65 800.845 1357.67 747.322Z" stroke="#33CC00" stroke-opacity="0.24"/>
<path d="M1299.1 733.645C1439.7 694.982 1392.22 562.709 1350.91 501.405C1222.67 313.439 1152.92 462.135 942.661 268.782C732.405 75.4282 756.142 171.64 319.948 456.902C-116.245 742.164 295.06 869.171 369.485 809.705C443.909 750.239 523.174 814.592 598.379 967.083C673.584 1119.57 1022.23 1005.07 1012.82 865.632C1003.4 726.19 1123.35 781.974 1299.1 733.645Z" stroke="#33CC00" stroke-opacity="0.24"/>
<path d="M1253.75 722.794C1382.33 687.506 1338.88 566.663 1301.09 510.653C1183.76 338.917 1120 474.737 927.663 298.061C735.328 121.386 757.058 209.281 358.194 469.774C-40.6702 730.266 335.522 846.378 403.575 792.072C471.628 737.766 544.135 796.569 612.948 935.887C681.761 1075.2 1000.59 970.685 991.954 843.302C983.317 715.919 1093.03 766.904 1253.75 722.794Z" stroke="#33CC00" stroke-opacity="0.24"/>
<path d="M1210.51 713.917C1327.72 681.707 1288.14 571.474 1253.69 520.384C1146.76 363.734 1088.62 487.645 913.316 326.499C738.013 165.353 757.809 245.532 394.178 483.223C30.5465 720.915 373.458 826.785 435.501 777.235C497.544 727.685 563.631 781.318 626.34 908.401C689.049 1035.48 979.702 940.092 971.846 823.887C963.99 707.683 1063.99 754.179 1210.51 713.917Z" stroke="#33CC00" stroke-opacity="0.24"/>
<path d="M1163.96 702.827C1268.86 673.936 1233.46 575.165 1202.65 529.39C1106.99 389.041 1054.93 500.093 898.085 355.732C741.241 211.371 758.938 283.215 433.456 496.3C107.975 709.385 414.83 804.173 470.366 759.755C525.902 715.338 585.032 763.383 641.121 877.248C697.21 991.113 957.346 905.56 950.344 801.43C943.342 697.301 1032.83 738.942 1163.96 702.827Z" stroke="#33CC00" stroke-opacity="0.24"/>
<path d="M1115.03 691.128C1206.97 665.851 1175.92 579.363 1148.9 539.279C1065.04 416.375 1019.43 513.599 881.933 387.172C744.437 260.744 759.961 323.652 474.726 510.163C189.491 696.675 458.457 779.725 507.125 740.845C555.792 701.964 607.627 744.042 656.808 843.75C705.989 943.457 933.975 868.597 927.819 777.423C921.662 686.249 1000.1 722.725 1115.03 691.128Z" stroke="#33CC00" stroke-opacity="0.24"/>
</svg>
