<svg width="571" height="1294" viewBox="0 0 571 1294" fill="none" xmlns="http://www.w3.org/2000/svg">
<path d="M315.536 886.927C391.243 1001.59 275.508 1065.76 208.177 1083.51C0.613197 1136.97 43.4141 988.388 -225.646 994.739C-494.706 1001.09 -418.178 947.711 -550.479 474.942C-682.78 2.17294 -312.325 167.616 -296.448 255.923C-280.572 344.23 -184.437 347.882 -36.4939 286.614C111.45 225.347 287.623 522.865 194.43 615.743C101.236 708.621 220.903 743.598 315.536 886.927Z" stroke="#33CC00" stroke-opacity="0.24"/>
<path d="M270.468 862.89C338.652 966.271 234.3 1024.21 173.601 1040.25C-13.5172 1088.57 25.135 954.535 -217.392 960.394C-459.919 966.253 -390.912 918.072 -509.934 491.729C-628.955 65.3849 -295.117 214.423 -280.85 294.063C-266.583 373.702 -179.931 376.949 -46.5488 321.617C86.8336 266.286 245.486 534.543 161.439 618.358C77.3913 702.174 185.238 733.662 270.468 862.89Z" stroke="#33CC00" stroke-opacity="0.24"/>
<path d="M235.424 844.443C297.817 938.942 202.435 991.828 146.944 1006.46C-24.1177 1050.51 11.1563 928.062 -210.588 933.295C-432.332 938.529 -369.262 894.538 -478.297 504.908C-587.332 115.279 -282.024 251.628 -268.939 324.405C-255.855 397.183 -176.626 400.193 -54.6995 349.7C67.2273 299.206 212.419 544.404 135.615 620.949C58.8102 697.493 157.433 726.32 235.424 844.443Z" stroke="#33CC00" stroke-opacity="0.24"/>
<path d="M202.832 825.916C259.688 912.088 172.708 960.356 122.111 973.718C-33.8656 1013.95 -1.66633 902.255 -203.839 907.099C-406.012 911.943 -348.495 871.799 -447.782 516.454C-547.069 161.108 -268.753 285.375 -256.847 351.751C-244.94 418.127 -172.706 420.847 -61.5255 374.754C49.6549 328.66 181.953 552.258 111.904 622.099C41.8543 691.939 131.762 718.2 202.832 825.916Z" stroke="#33CC00" stroke-opacity="0.24"/>
<path d="M166.886 806.949C217.736 884.113 139.845 927.401 94.5433 939.4C-45.1088 975.53 -16.2224 875.449 -197.21 879.9C-378.197 884.351 -326.686 848.357 -415.371 530.081C-504.056 211.804 -254.977 322.973 -244.355 382.429C-233.733 441.884 -169.071 444.281 -69.517 402.928C30.0369 361.574 148.347 561.808 85.6 624.412C22.8533 687.017 103.324 710.493 166.886 806.949Z" stroke="#33CC00" stroke-opacity="0.24"/>
<path d="M129.079 787.039C173.669 854.64 105.434 892.518 65.7433 903.007C-56.6135 934.59 -31.3434 846.954 -189.934 850.776C-348.525 854.598 -303.403 823.097 -381.248 544.32C-459.093 265.543 -240.787 363.007 -231.455 415.081C-222.122 467.155 -165.46 469.282 -78.2419 433.107C8.97621 396.932 112.731 572.343 57.7745 627.144C2.8181 681.945 73.3416 702.538 129.079 787.039Z" stroke="#33CC00" stroke-opacity="0.24"/>
</svg>
